<?xml version="1.0" encoding="UTF-8"?>
<svg version="1.1" xmlns="http://www.w3.org/2000/svg" width="252" height="252">
<path d="M0 0 C1.36130042 -0.00435678 2.72259841 -0.00954312 4.08389282 -0.01548767 C7.75343889 -0.02878524 11.42288137 -0.02946673 15.0924468 -0.02692437 C18.16866212 -0.02584833 21.24485702 -0.03075411 24.32106793 -0.03552979 C31.58515483 -0.04659305 38.84919001 -0.04708039 46.11328125 -0.04101562 C53.57847002 -0.0349783 61.0434702 -0.04728799 68.50862682 -0.06858569 C74.94464365 -0.08626437 81.38060079 -0.09219322 87.81664097 -0.08894795 C91.64883826 -0.08714489 95.48090098 -0.0896727 99.31307602 -0.10366249 C102.91983348 -0.11633883 106.52629927 -0.1142054 110.13305283 -0.1012516 C112.06773405 -0.09780022 114.00242461 -0.1089911 115.93707275 -0.12081909 C130.05002297 -0.03692886 143.00315981 3.15006243 153.51611328 13.0246582 C164.41515299 24.81706183 166.66777755 37.68688735 166.59179688 53.32983398 C166.59587341 54.69467587 166.6012213 56.05951445 166.60772705 57.42434692 C166.62127552 61.09369629 166.61615501 64.76278952 166.60658979 68.43214273 C166.59893094 72.29248592 166.60605564 76.15280892 166.61074829 80.01315308 C166.61618657 86.49049775 166.60906378 92.96773937 166.59472656 99.44506836 C166.57838991 106.91148502 166.58370363 114.37765598 166.60020578 121.84406674 C166.61385938 128.28180026 166.61572186 134.71946022 166.60788977 141.15720356 C166.60323624 144.99041382 166.60252424 148.82350892 166.61249924 152.65671158 C166.62122387 156.26022362 166.61504793 159.86342144 166.59781647 163.46689987 C166.59201819 165.40432057 166.60081901 167.34176814 166.61019897 169.2791748 C166.50963615 183.23980897 162.50686676 194.01064564 152.76611328 204.1496582 C149.11821093 207.6261826 145.71779152 210.06015567 141.20361328 212.2746582 C139.81142578 213.0790332 139.81142578 213.0790332 138.39111328 213.8996582 C131.15808742 217.01978701 123.32125161 217.60589249 115.52294922 217.89135742 C114.17145594 217.94775548 114.17145594 217.94775548 112.79265976 218.00529289 C102.2286634 218.40847135 91.66438911 218.4194456 81.09423828 218.4074707 C78.94537342 218.40814714 76.79650864 218.40911997 74.64764404 218.41036987 C70.18370828 218.41182962 65.71979276 218.40974768 61.25585938 218.4050293 C55.58248416 218.39931911 49.90915614 218.40263025 44.23578262 218.40860176 C39.81213027 218.41224246 35.38848883 218.41105302 30.96483612 218.40847397 C28.87440739 218.4078151 26.78397761 218.40859596 24.69355011 218.41095352 C-17.44951794 218.44809259 -17.44951794 218.44809259 -27.79638672 213.2746582 C-27.79638672 212.6146582 -27.79638672 211.9546582 -27.79638672 211.2746582 C-29.77638672 210.9446582 -31.75638672 210.6146582 -33.79638672 210.2746582 C-33.79638672 209.6146582 -33.79638672 208.9546582 -33.79638672 208.2746582 C-35.44638672 207.6146582 -37.09638672 206.9546582 -38.79638672 206.2746582 C-38.79638672 205.6146582 -38.79638672 204.9546582 -38.79638672 204.2746582 C-39.39580078 204.01426758 -39.99521484 203.75387695 -40.61279297 203.4855957 C-47.82972292 199.48336263 -51.51546043 189.77172669 -53.79638672 182.2746582 C-54.81453933 175.04809712 -54.95043485 167.93959604 -54.95751953 160.64916992 C-54.96248444 159.41373947 -54.96744934 158.17830902 -54.9725647 156.90544128 C-54.98460298 153.53935615 -54.99211299 150.17333256 -54.99657536 146.80723333 C-54.99952346 144.69594025 -55.00363139 142.58465239 -55.00807953 140.47336197 C-55.02172735 133.84347909 -55.03140699 127.21360839 -55.03528142 120.58371246 C-55.03975432 112.97532625 -55.05727786 105.36712038 -55.08628201 97.75878894 C-55.10802077 91.8475903 -55.11799217 85.93644195 -55.11932254 80.02520382 C-55.12036198 76.50866352 -55.12608307 72.99229334 -55.14414215 69.47579575 C-55.34224912 28.54855037 -55.34224912 28.54855037 -40.51513672 12.70825195 C-28.42546287 1.88660424 -15.78940535 -0.03118632 0 0 Z " fill="#5EB2B0" transform="translate(69.79638671875,15.725341796875)"/>
<path d="M0 0 C0.99 0.99 1.98 1.98 3 3 C3 7.62 3 12.24 3 17 C21.15 17 39.3 17 58 17 C58 13.37 58 9.74 58 6 C59.17244304 3.45121078 60.06297378 1.93702622 62 0 C69.23565245 -0.46681629 69.23565245 -0.46681629 71.74609375 1.06640625 C73.68170042 4.05122028 73.28393652 6.68363966 73.1875 10.1875 C73.14689453 12.09595703 73.14689453 12.09595703 73.10546875 14.04296875 C73.07066406 15.01878906 73.03585938 15.99460937 73 17 C73.56396484 16.97905273 74.12792969 16.95810547 74.70898438 16.93652344 C77.30580249 16.85251499 79.90233362 16.80107771 82.5 16.75 C83.386875 16.71648438 84.27375 16.68296875 85.1875 16.6484375 C92.3697932 16.54281554 97.53807011 18.01258173 103.0234375 22.74609375 C103.69246094 23.58333984 103.69246094 23.58333984 104.375 24.4375 C105.06722656 25.27087891 105.06722656 25.27087891 105.7734375 26.12109375 C109.33900123 31.58299233 109.29146875 36.56770686 109.2746582 42.89575195 C109.27976913 43.88824951 109.28488007 44.88074707 109.29014587 45.90332031 C109.30403645 49.18170212 109.30308522 52.45987352 109.30078125 55.73828125 C109.30466897 58.02125629 109.3090038 60.3042306 109.31376648 62.58720398 C109.32122792 67.3728571 109.3209383 72.15843644 109.31567383 76.9440918 C109.30988475 83.06731645 109.32679724 89.19023809 109.3500185 95.31341267 C109.36477495 100.02926897 109.36562483 104.74505266 109.36250877 109.46092796 C109.3630212 111.71789334 109.36824413 113.97486286 109.37832069 116.2318058 C109.39070211 119.39342345 109.3838824 122.55445567 109.37231445 125.71606445 C109.37995819 126.64257309 109.38760193 127.56908173 109.39547729 128.52366638 C109.3422132 135.13338467 108.51026079 140.98558642 104.1328125 146.2421875 C103.47023437 146.78101563 102.80765625 147.31984375 102.125 147.875 C101.46757812 148.42929688 100.81015625 148.98359375 100.1328125 149.5546875 C96.10662892 152.28305366 92.54985499 153.24910974 87.71380615 153.28088379 C86.66817001 153.29230408 85.62253387 153.30372437 84.54521179 153.31549072 C83.40848526 153.31772644 82.27175873 153.31996216 81.10058594 153.32226562 C79.29238121 153.33716034 79.29238121 153.33716034 77.44764709 153.35235596 C74.14779255 153.37652582 70.84819069 153.39147688 67.54827785 153.40037727 C65.48327748 153.40625312 63.41829895 153.41446542 61.35330963 153.42338562 C54.88253919 153.45071374 48.41181911 153.47005727 41.94099498 153.4777894 C34.48960885 153.48674398 27.03895774 153.52181591 19.58779502 153.57979059 C13.81603635 153.62312827 8.0444837 153.64320345 2.27256417 153.64587164 C-1.16916712 153.64796054 -4.61020651 153.65961765 -8.05176544 153.69551086 C-11.8960758 153.72970677 -15.73860614 153.72585479 -19.58300781 153.71289062 C-20.71163742 153.73132019 -21.84026703 153.74974976 -23.00309753 153.76873779 C-30.51961737 153.68952493 -35.36611575 152.06671722 -41 147 C-45.3031392 142.2159907 -47.10678897 137.98959952 -47.15390015 131.62457275 C-47.16250061 130.75556335 -47.17110107 129.88655396 -47.17996216 128.99121094 C-47.18422211 128.04568359 -47.18848206 127.10015625 -47.19287109 126.12597656 C-47.20104858 125.12387146 -47.20922607 124.12176636 -47.21765137 123.08929443 C-47.24246311 119.77307732 -47.25901022 116.45690288 -47.2734375 113.140625 C-47.27876118 112.00689201 -47.28408485 110.87315903 -47.28956985 109.7050705 C-47.31628244 103.7047544 -47.33566387 97.70445898 -47.35009766 91.70410156 C-47.36344014 86.74167462 -47.39130192 81.77965854 -47.43212891 76.81738281 C-47.48145692 70.82159319 -47.50621892 64.82617644 -47.51332474 58.83019257 C-47.52003446 56.5480721 -47.53524913 54.26595986 -47.55921555 51.98395538 C-47.59088623 48.78606427 -47.59090051 45.58960878 -47.58349609 42.39160156 C-47.59990143 41.45417114 -47.61630676 40.51674072 -47.63320923 39.55090332 C-47.56580008 32.41744803 -45.49885701 27.61042809 -40.52181053 22.47467422 C-34.37013871 17.01883545 -29.0358923 16.72283132 -21.1875 16.875 C-20.30384766 16.88402344 -19.42019531 16.89304687 -18.50976562 16.90234375 C-16.33972641 16.92580363 -14.16982753 16.96167135 -12 17 C-12.04640625 16.19175781 -12.0928125 15.38351563 -12.140625 14.55078125 C-12.43162233 5.93518172 -12.43162233 5.93518172 -10.5 1.75 C-6.7505036 -0.87464748 -4.5277415 -0.5749513 0 0 Z " fill="#5FB3B1" transform="translate(95,44)"/>
<path d="M0 0 C0.99 0.99 1.98 1.98 3 3 C3 7.62 3 12.24 3 17 C21.15 17 39.3 17 58 17 C58 13.37 58 9.74 58 6 C59.17244304 3.45121078 60.06297378 1.93702622 62 0 C69.23565245 -0.46681629 69.23565245 -0.46681629 71.74609375 1.06640625 C73.68170042 4.05122028 73.28393652 6.68363966 73.1875 10.1875 C73.14689453 12.09595703 73.14689453 12.09595703 73.10546875 14.04296875 C73.07066406 15.01878906 73.03585938 15.99460937 73 17 C73.56396484 16.97905273 74.12792969 16.95810547 74.70898438 16.93652344 C77.30580249 16.85251499 79.90233362 16.80107771 82.5 16.75 C83.386875 16.71648438 84.27375 16.68296875 85.1875 16.6484375 C92.3697932 16.54281554 97.53807011 18.01258173 103.0234375 22.74609375 C103.69246094 23.58333984 103.69246094 23.58333984 104.375 24.4375 C105.06722656 25.27087891 105.06722656 25.27087891 105.7734375 26.12109375 C109.33900123 31.58299233 109.29146875 36.56770686 109.2746582 42.89575195 C109.27976913 43.88824951 109.28488007 44.88074707 109.29014587 45.90332031 C109.30403645 49.18170212 109.30308522 52.45987352 109.30078125 55.73828125 C109.30466897 58.02125629 109.3090038 60.3042306 109.31376648 62.58720398 C109.32122792 67.3728571 109.3209383 72.15843644 109.31567383 76.9440918 C109.30988475 83.06731645 109.32679724 89.19023809 109.3500185 95.31341267 C109.36477495 100.02926897 109.36562483 104.74505266 109.36250877 109.46092796 C109.3630212 111.71789334 109.36824413 113.97486286 109.37832069 116.2318058 C109.39070211 119.39342345 109.3838824 122.55445567 109.37231445 125.71606445 C109.37995819 126.64257309 109.38760193 127.56908173 109.39547729 128.52366638 C109.3422132 135.13338467 108.51026079 140.98558642 104.1328125 146.2421875 C103.47023437 146.78101563 102.80765625 147.31984375 102.125 147.875 C101.46757812 148.42929688 100.81015625 148.98359375 100.1328125 149.5546875 C96.10662892 152.28305366 92.54985499 153.24910974 87.71380615 153.28088379 C86.66817001 153.29230408 85.62253387 153.30372437 84.54521179 153.31549072 C83.40848526 153.31772644 82.27175873 153.31996216 81.10058594 153.32226562 C79.29238121 153.33716034 79.29238121 153.33716034 77.44764709 153.35235596 C74.14779255 153.37652582 70.84819069 153.39147688 67.54827785 153.40037727 C65.48327748 153.40625312 63.41829895 153.41446542 61.35330963 153.42338562 C54.88253919 153.45071374 48.41181911 153.47005727 41.94099498 153.4777894 C34.48960885 153.48674398 27.03895774 153.52181591 19.58779502 153.57979059 C13.81603635 153.62312827 8.0444837 153.64320345 2.27256417 153.64587164 C-1.16916712 153.64796054 -4.61020651 153.65961765 -8.05176544 153.69551086 C-11.8960758 153.72970677 -15.73860614 153.72585479 -19.58300781 153.71289062 C-20.71163742 153.73132019 -21.84026703 153.74974976 -23.00309753 153.76873779 C-30.51961737 153.68952493 -35.36611575 152.06671722 -41 147 C-45.3031392 142.2159907 -47.10678897 137.98959952 -47.15390015 131.62457275 C-47.16250061 130.75556335 -47.17110107 129.88655396 -47.17996216 128.99121094 C-47.18422211 128.04568359 -47.18848206 127.10015625 -47.19287109 126.12597656 C-47.20104858 125.12387146 -47.20922607 124.12176636 -47.21765137 123.08929443 C-47.24246311 119.77307732 -47.25901022 116.45690288 -47.2734375 113.140625 C-47.27876118 112.00689201 -47.28408485 110.87315903 -47.28956985 109.7050705 C-47.31628244 103.7047544 -47.33566387 97.70445898 -47.35009766 91.70410156 C-47.36344014 86.74167462 -47.39130192 81.77965854 -47.43212891 76.81738281 C-47.48145692 70.82159319 -47.50621892 64.82617644 -47.51332474 58.83019257 C-47.52003446 56.5480721 -47.53524913 54.26595986 -47.55921555 51.98395538 C-47.59088623 48.78606427 -47.59090051 45.58960878 -47.58349609 42.39160156 C-47.59990143 41.45417114 -47.61630676 40.51674072 -47.63320923 39.55090332 C-47.56580008 32.41744803 -45.49885701 27.61042809 -40.52181053 22.47467422 C-34.37013871 17.01883545 -29.0358923 16.72283132 -21.1875 16.875 C-20.30384766 16.88402344 -19.42019531 16.89304687 -18.50976562 16.90234375 C-16.33972641 16.92580363 -14.16982753 16.96167135 -12 17 C-12.04640625 16.19175781 -12.0928125 15.38351563 -12.140625 14.55078125 C-12.43162233 5.93518172 -12.43162233 5.93518172 -10.5 1.75 C-6.7505036 -0.87464748 -4.5277415 -0.5749513 0 0 Z M-33 35 C-33.60635018 38.14886636 -33.54624266 41.26414444 -33.51757812 44.46264648 C-33.5245874 45.42080261 -33.53159668 46.37895874 -33.53881836 47.3661499 C-33.55642922 50.53475899 -33.54476339 53.7024755 -33.53125 56.87109375 C-33.53394424 59.07300488 -33.53782609 61.27491485 -33.54284668 63.4768219 C-33.54874612 68.0928174 -33.540165 72.70850336 -33.52148438 77.32446289 C-33.49870827 83.24075974 -33.51180705 89.15633025 -33.53577423 95.07260036 C-33.55023139 99.62023893 -33.54562629 104.16770544 -33.53526306 108.7153492 C-33.53259487 110.89663847 -33.53586875 113.07794337 -33.54518127 115.2592144 C-33.5553437 118.30921641 -33.53984868 121.35804438 -33.51757812 124.40795898 C-33.52567505 125.30942154 -33.53377197 126.21088409 -33.54211426 127.1396637 C-33.48599195 131.28985857 -33.34673946 133.44789924 -31.09265137 137.03700256 C-28.06179 139.88008153 -26.43869776 140.12622196 -22.389328 140.14044189 C-20.9319799 140.14900711 -20.9319799 140.14900711 -19.44519043 140.15774536 C-17.84073059 140.15942215 -17.84073059 140.15942215 -16.20385742 140.16113281 C-15.08018265 140.16609772 -13.95650787 140.17106262 -12.79878235 140.17617798 C-9.06767167 140.19082748 -5.33660351 140.19760634 -1.60546875 140.203125 C0.98044334 140.20887426 3.56635541 140.21463202 6.15226746 140.22039795 C10.88598824 140.22957034 15.61969194 140.23586735 20.35342008 140.2388947 C27.31902789 140.24337386 34.28443932 140.26091404 41.24998742 140.2898953 C47.2834641 140.31412651 53.31684796 140.32183953 59.35037804 140.32357025 C61.91684729 140.32660128 64.48331563 140.33464486 67.04975319 140.34775543 C70.63854533 140.36477944 74.22685787 140.36294427 77.81567383 140.35644531 C78.87924103 140.3656601 79.94280823 140.37487488 81.03860474 140.3843689 C88.05865466 140.43956642 88.05865466 140.43956642 94 137 C94.90428047 134.2871586 95.13066933 132.69605675 95.14717102 129.9077301 C95.15432632 129.0763855 95.16148163 128.24504089 95.16885376 127.38850403 C95.17154266 126.47985092 95.17423157 125.57119781 95.17700195 124.63500977 C95.18685875 123.19558517 95.18685875 123.19558517 95.19691467 121.7270813 C95.21664181 118.54852218 95.22830698 115.37001022 95.23828125 112.19140625 C95.24235678 111.1069264 95.2464323 110.02244656 95.25063133 108.90510368 C95.2714863 103.1687527 95.28579237 97.43242562 95.29516602 91.69604492 C95.306249 85.76288831 95.34067247 79.83010483 95.38033772 73.89708042 C95.40643717 69.34095038 95.41485176 64.78491031 95.41844749 60.22871208 C95.42332816 58.04098926 95.43498392 55.85327084 95.45348549 53.6656208 C95.47774211 50.60823746 95.47693685 47.55183416 95.4699707 44.49438477 C95.48278076 43.58775589 95.49559082 42.68112701 95.50878906 41.74702454 C95.49711565 36.73464899 95.49711565 36.73464899 93.10227966 32.4349823 C90.70562001 30.79906095 89.5449562 30.52728697 86.671875 30.609375 C85.47304687 30.62871094 85.47304687 30.62871094 84.25 30.6484375 C83.425 30.68195313 82.6 30.71546875 81.75 30.75 C80.48929688 30.77707031 80.48929688 30.77707031 79.203125 30.8046875 C77.13492605 30.85169202 75.06731559 30.92343276 73 31 C72.96261719 31.75925781 72.92523438 32.51851562 72.88671875 33.30078125 C72.82097656 34.29464844 72.75523437 35.28851563 72.6875 36.3125 C72.62949219 37.29863281 72.57148438 38.28476563 72.51171875 39.30078125 C71.94714579 42.27879589 71.44521412 43.26337525 69 45 C66 45.375 66 45.375 63 45 C60 42 60 42 59 31 C40.52 31 22.04 31 3 31 C2.67 35.29 2.34 39.58 2 44 C-1.1677143 44.60559244 -3.81426269 45.10436036 -7 45 C-9.89094367 42.83179225 -10.76925526 41.1915181 -11.453125 37.66015625 C-11.72012802 35.43630219 -11.90252164 33.23712842 -12 31 C-14.75105422 30.89187997 -17.49785087 30.81265055 -20.25 30.75 C-21.02730469 30.71648437 -21.80460937 30.68296875 -22.60546875 30.6484375 C-23.35957031 30.63554688 -24.11367187 30.62265625 -24.890625 30.609375 C-25.58188477 30.58842773 -26.27314453 30.56748047 -26.98535156 30.54589844 C-30.11091655 31.25040048 -31.08329919 32.4231619 -33 35 Z " fill="#233941" transform="translate(95,44)"/>
<path d="M0 0 C2.62974864 1.38160666 4.5803135 3.23784351 6.6875 5.3125 C7.88677125 6.41683995 9.08867159 7.51833054 10.29296875 8.6171875 C10.90060059 9.18018555 11.50823242 9.74318359 12.13427734 10.32324219 C15.13362672 13.0188103 18.30735837 15.47678184 21.5 17.9375 C33.45932667 27.18899 33.45932667 27.18899 36 31 C36.22007885 33.77077421 36.32800819 36.43858349 36.3359375 39.2109375 C36.3459227 40.41866318 36.3459227 40.41866318 36.35610962 41.65078735 C36.36623125 43.35375689 36.37092679 45.05676604 36.37060547 46.75976562 C36.37497268 49.35874226 36.41127829 51.95601203 36.44921875 54.5546875 C36.45508833 56.21093171 36.45905678 57.86718396 36.4609375 59.5234375 C36.47530853 60.29754974 36.48967957 61.07166199 36.50448608 61.86923218 C36.47418134 65.46795779 36.09477947 67.82760353 34.35107422 70.99926758 C31.34744395 73.55531639 29.8288057 73.58403936 25.921875 73.48828125 C24.18164062 73.46411133 24.18164062 73.46411133 22.40625 73.43945312 C21.1996875 73.39755859 19.993125 73.35566406 18.75 73.3125 C17.52796875 73.28994141 16.3059375 73.26738281 15.046875 73.24414062 C12.03072736 73.18523149 9.01520922 73.0955524 6 73 C6 64.75 6 56.5 6 48 C-0.27 48 -6.54 48 -13 48 C-13 56.25 -13 64.5 -13 73 C-17.41767934 73.13468535 -21.83127255 73.23399469 -26.25 73.3125 C-27.50425781 73.35439453 -28.75851563 73.39628906 -30.05078125 73.43945312 C-31.85869141 73.46362305 -31.85869141 73.46362305 -33.703125 73.48828125 C-35.36843262 73.52755737 -35.36843262 73.52755737 -37.06738281 73.56762695 C-40 73 -40 73 -42.36254883 70.98120117 C-44.43330425 67.21111105 -44.55922996 64.00490315 -44.49609375 59.8125 C-44.49754898 59.03237549 -44.49900421 58.25225098 -44.50050354 57.44848633 C-44.49884877 55.80448662 -44.48733469 54.16047074 -44.46655273 52.51660156 C-44.43758994 50.00779056 -44.44595301 47.501094 -44.45898438 44.9921875 C-44.45274638 43.39061479 -44.44435496 41.78904871 -44.43359375 40.1875 C-44.43652939 39.44153564 -44.43946503 38.69557129 -44.44248962 37.92700195 C-44.34451573 32.48744764 -43.19014116 29.29687589 -39.45703125 25.38183594 C-38.64298828 24.69009277 -38.64298828 24.69009277 -37.8125 23.984375 C-37.20140381 23.45972656 -36.59030762 22.93507813 -35.96069336 22.39453125 C-35.31366455 21.85183594 -34.66663574 21.30914062 -34 20.75 C-33.33299072 20.18152344 -32.66598145 19.61304687 -31.97875977 19.02734375 C-27.13474178 14.91297592 -22.24876659 10.84833249 -17.28515625 6.87890625 C-15.04677819 5.09451858 -15.04677819 5.09451858 -13.30859375 3.33984375 C-9.2287333 -0.65108242 -5.42718688 -0.92415345 0 0 Z " fill="#233841" transform="translate(130,100)"/>
<path d="M0 0 C1.99849139 3.33579119 2.25289206 5.86717931 2.26069641 9.72866821 C2.26778122 10.89769684 2.27486603 12.06672546 2.28216553 13.2711792 C2.27968811 14.55019104 2.27721069 15.82920288 2.2746582 17.14697266 C2.27900663 18.51063313 2.28419022 19.87429116 2.29014587 21.23794556 C2.3035393 24.9407689 2.30411372 28.64349018 2.30158257 32.34633303 C2.30051218 35.44231847 2.30539847 38.53828332 2.310188 41.63426435 C2.32128633 48.94515675 2.32172005 56.25599778 2.31567383 63.56689453 C2.30964546 71.09220943 2.32191524 78.61733682 2.3432439 86.14261973 C2.36090709 92.61415278 2.36685348 99.08562643 2.36360615 105.55718267 C2.3617992 109.41735069 2.36436954 113.27738522 2.37832069 117.13753128 C2.39096988 120.77375032 2.38888864 124.40967962 2.37590981 128.04589462 C2.37244577 130.00248736 2.38367224 131.95908922 2.39547729 133.91564941 C2.31264475 147.92059235 -1.66344061 158.70131978 -11.4375 168.875 C-15.08540235 172.35152439 -18.48582176 174.78549747 -23 177 C-24.3921875 177.804375 -24.3921875 177.804375 -25.8125 178.625 C-33.04552586 181.7451288 -40.88236167 182.33123429 -48.68066406 182.61669922 C-50.03215734 182.67309728 -50.03215734 182.67309728 -51.41095352 182.73063469 C-61.97494988 183.13381314 -72.53922417 183.1447874 -83.109375 183.1328125 C-85.25823986 183.13348894 -87.40710464 183.13446177 -89.55596924 183.13571167 C-94.019905 183.13717142 -98.48382053 183.13508948 -102.94775391 183.13037109 C-108.62112912 183.12466091 -114.29445714 183.12797204 -119.96783066 183.13394356 C-124.39148301 183.13758426 -128.81512445 183.13639482 -133.23877716 183.13381577 C-135.32920589 183.13315689 -137.41963567 183.13393776 -139.51006317 183.13629532 C-181.65313122 183.17343439 -181.65313122 183.17343439 -192 178 C-192 177.34 -192 176.68 -192 176 C-191.22807155 176.21205896 -190.45614309 176.42411793 -189.66082287 176.64260292 C-181.19859232 178.80271567 -173.35701163 179.42998128 -164.64770508 179.38818359 C-163.26301157 179.39226117 -161.87832132 179.39760963 -160.49363708 179.40411377 C-156.77476273 179.41764864 -153.05614143 179.41254784 -149.33726335 179.40297651 C-145.42354099 179.39531194 -141.50983843 179.40244378 -137.59611511 179.40713501 C-131.03059041 179.41257103 -124.46516742 179.40545584 -117.8996582 179.39111328 C-110.33154317 179.37477043 -102.76367046 179.38009576 -95.19556123 179.3965925 C-88.6686366 179.41024467 -82.14178453 179.41210947 -75.61485022 179.40427649 C-71.72911751 179.39962303 -67.84349842 179.39891089 -63.95777321 179.40888596 C-60.30582365 179.41760876 -56.65418421 179.41143792 -53.00226784 179.39420319 C-51.03861532 179.38840364 -49.07493629 179.39720681 -47.11129761 179.40658569 C-33.39783053 179.3090805 -22.04361169 175.37134958 -11.8515625 166.01171875 C-2.33115224 155.66781309 -0.55022722 144.22181606 -0.56762695 130.66772461 C-0.55859575 129.23783529 -0.54826523 127.80795369 -0.53674316 126.37808228 C-0.5093062 122.52127939 -0.49990689 118.66462394 -0.49388909 114.80773616 C-0.48447055 110.76780724 -0.4582645 106.72798695 -0.43388367 102.68812561 C-0.39031033 95.04922287 -0.3617072 87.41034132 -0.33856028 79.77135235 C-0.31145931 71.06991625 -0.26755093 62.36858993 -0.22227156 53.66723239 C-0.12955666 35.77821299 -0.05781588 17.88916454 0 0 Z " fill="#D8E4E4" transform="translate(234,51)"/>
<path d="M0 0 C0.66 0.33 1.32 0.66 2 1 C1.12988281 1.69222656 1.12988281 1.69222656 0.2421875 2.3984375 C-9.14235297 10.23437393 -15.15686896 19.71207393 -16.28025436 32.08728027 C-16.38815672 35.60948262 -16.40545852 39.12070463 -16.38818359 42.64453125 C-16.39225776 43.98937402 -16.39760434 45.33421344 -16.40411377 46.67904663 C-16.417693 50.3030621 -16.41252802 53.92681896 -16.40297651 57.55083847 C-16.39533081 61.36047769 -16.40243906 65.17009616 -16.40713501 68.97973633 C-16.41257836 75.37487728 -16.40543842 81.76991397 -16.39111328 88.16503906 C-16.37478946 95.53712095 -16.38007898 102.90895384 -16.3965925 110.2810297 C-16.41024803 116.6337982 -16.41210723 122.98649215 -16.40427649 129.33927059 C-16.39962224 133.12332675 -16.39891268 136.90726624 -16.40888596 140.6913147 C-16.4176129 144.25047975 -16.41143053 147.80932675 -16.39420319 151.36845779 C-16.38840604 153.28204167 -16.39720476 155.19565275 -16.40658569 157.10922241 C-16.3016574 171.5030114 -12.10343057 182.21905805 -2.328125 192.72265625 C0.59142961 195.5785293 3.56212829 197.8056138 7 200 C6.01 200.33 5.02 200.66 4 201 C3.34 200.67 2.68 200.34 2 200 C2 199.34 2 198.68 2 198 C0.35 197.34 -1.3 196.68 -3 196 C-3 195.34 -3 194.68 -3 194 C-3.59941406 193.73960937 -4.19882812 193.47921875 -4.81640625 193.2109375 C-12.0333362 189.20870443 -15.71907371 179.49706849 -18 172 C-19.01815261 164.77343892 -19.15404813 157.66493784 -19.16113281 150.37451172 C-19.16609772 149.13908127 -19.17106262 147.90365082 -19.17617798 146.63078308 C-19.18821627 143.26469795 -19.19572627 139.89867435 -19.20018864 136.53257513 C-19.20313674 134.42128205 -19.20724467 132.30999418 -19.21169281 130.19870377 C-19.22534063 123.56882089 -19.23502027 116.93895019 -19.2388947 110.30905426 C-19.2433676 102.70066804 -19.26089114 95.09246218 -19.2898953 87.48413074 C-19.31163405 81.5729321 -19.32160545 75.66178374 -19.32293582 69.75054562 C-19.32397526 66.23400532 -19.32969635 62.71763514 -19.34775543 59.20113754 C-19.54138875 19.19424109 -19.54138875 19.19424109 -4.8671875 2.75 C-3 1 -3 1 0 0 Z " fill="#F9F9F9" transform="translate(34,26)"/>
<path d="M0 0 C0 0.33 0 0.66 0 1 C17.82 1.33 35.64 1.66 54 2 C54 2.33 54 2.66 54 3 C7.8 3 -38.4 3 -86 3 C-86 2.67 -86 2.34 -86 2 C-84.87319824 1.97494385 -83.74639648 1.9498877 -82.58544922 1.92407227 C-77.34855937 1.80666802 -72.1117639 1.68538597 -66.875 1.5625 C-65.93207092 1.54043488 -64.98914185 1.51836975 -64.01763916 1.49563599 C-53.63055998 1.249656 -43.25133563 0.98688242 -32.875 0.4375 C-21.91854097 -0.14178209 -10.96873235 -0.09877634 0 0 Z " fill="#B2D8D8" transform="translate(142,16)"/>
<path d="M0 0 C0.33 0 0.66 0 1 0 C1.04487549 1.21993652 1.08975098 2.43987305 1.13598633 3.69677734 C1.30744001 8.26343441 1.49609183 12.82925244 1.68969727 17.39501953 C1.77082033 19.36358435 1.84740393 21.33234209 1.91918945 23.30126953 C2.0237515 26.1467994 2.14513329 28.99121373 2.26953125 31.8359375 C2.29779495 32.70302338 2.32605865 33.57010925 2.35517883 34.46347046 C3.04390439 48.99595431 8.69567722 59.92043594 19 70 C21.27104353 71.85247529 23.52498804 73.42020513 26 75 C24.515 75.495 24.515 75.495 23 76 C22.34 75.67 21.68 75.34 21 75 C21 74.34 21 73.68 21 73 C19.35 72.34 17.7 71.68 16 71 C16 70.34 16 69.68 16 69 C15.10087891 68.60941406 15.10087891 68.60941406 14.18359375 68.2109375 C6.9666638 64.20870443 3.28092629 54.49706849 1 47 C0.03948984 40.94689194 -0.13788414 34.92507694 -0.09765625 28.80859375 C-0.0962413 27.97787857 -0.09482635 27.14716339 -0.09336853 26.29127502 C-0.0878317 23.67331125 -0.07529162 21.05543733 -0.0625 18.4375 C-0.05747681 16.64778771 -0.05291535 14.85807405 -0.04882812 13.06835938 C-0.03788308 8.71220567 -0.02066319 4.356118 0 0 Z " fill="#F5F5F5" transform="translate(15,151)"/>
<path d="M0 0 C9.60588781 0.42692835 17.79685549 5.89057185 24.2109375 12.79296875 C28.98586898 18.68344099 32.66540195 24.30424484 33 32 C30.92732343 29.35555058 29.2765199 26.73853897 27.75 23.75 C21.94127602 13.29772381 13.43063002 5.95747986 1.75 2.5625 C0.8425 2.376875 -0.065 2.19125 -1 2 C-0.67 1.34 -0.34 0.68 0 0 Z " fill="#E7EBEB" transform="translate(201,18)"/>
<path d="M0 0 C0.66 0.33 1.32 0.66 2 1 C1.12988281 1.69222656 1.12988281 1.69222656 0.2421875 2.3984375 C-10.42893319 11.30864718 -14.02125611 20.85848286 -17 34 C-17.33 34 -17.66 34 -18 34 C-18.7090831 23.12739246 -14.31698602 13.33157998 -7.3828125 5.07421875 C-5.01201267 2.60316121 -3.2793337 1.09311123 0 0 Z " fill="#F0F3F3" transform="translate(34,26)"/>
<path d="M0 0 C0.66 0 1.32 0 2 0 C2.474375 1.11375 2.94875 2.2275 3.4375 3.375 C7.56509048 11.61554411 14.30196925 18.08636335 22 23 C21.01 23.33 20.02 23.66 19 24 C18.34 23.67 17.68 23.34 17 23 C17 22.34 17 21.68 17 21 C14.525 20.01 14.525 20.01 12 19 C12 18.34 12 17.68 12 17 C11.40445312 16.74992187 10.80890625 16.49984375 10.1953125 16.2421875 C7.6964035 14.82821408 6.54581528 13.44314686 4.875 11.125 C4.37742187 10.44695312 3.87984375 9.76890625 3.3671875 9.0703125 C1.26235444 5.88299386 0 3.87557547 0 0 Z " fill="#EBEEED" transform="translate(19,203)"/>
<path d="M0 0 C6.84630303 0.14883267 12.34196604 3.30955225 18 7 C18.33 7.66 18.66 8.32 19 9 C12.9542404 8.52270319 8.25567593 5.78394715 3 3 C1.66847701 2.32972487 0.33578652 1.66173756 -1 1 C-0.67 0.67 -0.34 0.34 0 0 Z " fill="#BDC4C4" transform="translate(201,18)"/>
<path d="M0 0 C0.66 0.33 1.32 0.66 2 1 C-1.63 4.63 -5.26 8.26 -9 12 C-9.33 11.01 -9.66 10.02 -10 9 C-6.7 6.03 -3.4 3.06 0 0 Z " fill="#1C2C37" transform="translate(97,120)"/>
<path d="M0 0 C-1.66751148 3.94139078 -4.22710649 6.7892812 -7 10 C-7.33 9.01 -7.66 8.02 -8 7 C-6.85546875 5.17578125 -6.85546875 5.17578125 -5.1875 3.3125 C-4.37345703 2.37857422 -4.37345703 2.37857422 -3.54296875 1.42578125 C-2 0 -2 0 0 0 Z " fill="#1E2E38" transform="translate(58,65)"/>
<path d="M0 0 C0.59425781 0.35449219 1.18851563 0.70898438 1.80078125 1.07421875 C0.34452675 1.74541424 -1.11429742 2.41103682 -2.57421875 3.07421875 C-3.79238281 3.63109375 -3.79238281 3.63109375 -5.03515625 4.19921875 C-7.19921875 5.07421875 -7.19921875 5.07421875 -9.19921875 5.07421875 C-8.19921875 2.07421875 -8.19921875 2.07421875 -5.38671875 0.26171875 C-2.19921875 -0.92578125 -2.19921875 -0.92578125 0 0 Z " fill="#EAF1F0" transform="translate(46.19921875,19.92578125)"/>
<path d="M0 0 C2.31 0.33 4.62 0.66 7 1 C7.33 1.99 7.66 2.98 8 4 C3.545 3.01 3.545 3.01 -1 2 C-0.67 1.34 -0.34 0.68 0 0 Z " fill="#E3E9E9" transform="translate(201,18)"/>
<path d="M0 0 C2.7972908 2.06756277 3.02692273 3.14440371 3.6875 6.6875 C3.790625 7.780625 3.89375 8.87375 4 10 C1.16625119 6.79663178 0.4794463 4.21912747 0 0 Z " fill="#DEE0E0" transform="translate(230,40)"/>
<path d="M0 0 C4.31392226 0.4793247 6.16569547 1.7457985 9 5 C7.35 4.67 5.7 4.34 4 4 C4 3.34 4 2.68 4 2 C2.68 1.34 1.36 0.68 0 0 Z " fill="#E3E8E8" transform="translate(32,222)"/>
<path d="M0 0 C-0.33 0.99 -0.66 1.98 -1 3 C-3.31 3 -5.62 3 -8 3 C-7 1 -7 1 -5.125 0.375 C-3 0 -3 0 0 0 Z " fill="#BDC1C1" transform="translate(53,17)"/>
</svg>
